<?xml version="1.0" standalone="no"?>
<!DOCTYPE svg PUBLIC "-//W3C//DTD SVG 20010904//EN"
 "http://www.w3.org/TR/2001/REC-SVG-20010904/DTD/svg10.dtd">
<svg version="1.0" xmlns="http://www.w3.org/2000/svg"
 width="420.000000pt" height="420.000000pt" viewBox="0 0 420.000000 420.000000"
 preserveAspectRatio="xMidYMid meet">
<metadata>
Created by potrace 1.11, written by Peter Selinger 2001-2013
</metadata>
<g transform="translate(0.000000,420.000000) scale(0.100000,-0.100000)"
fill="#000000" stroke="none">
<path d="M203 4072 l-73 -3 0 -1974 0 -1975 1973 3 1972 2 1 1973 1 1972 -41
0 c-324 3 -3781 4 -3833 2z m3853 -1974 l-1 -1953 -1952 -3 -1952 -2 1 1955 0
1955 1953 0 1952 0 -1 -1952z"/>
<path d="M2442 4013 c-8 -3 -34 -37 -58 -75 -43 -67 -46 -69 -82 -67 -20 2
-41 6 -47 10 -22 15 -86 17 -100 2 -8 -8 -15 -17 -15 -21 0 -10 26 -58 39 -74
43 -50 51 -64 51 -89 0 -15 -4 -30 -9 -33 -13 -8 -62 -93 -66 -116 -5 -28 19
-43 57 -34 18 4 36 7 41 6 4 -1 7 2 7 7 0 5 14 12 30 16 17 4 30 11 30 16 0 6
8 5 20 -1 11 -6 20 -8 20 -4 0 3 29 -24 64 -61 59 -62 65 -66 85 -53 20 12 21
20 19 100 -3 98 -2 100 72 139 60 31 80 49 80 69 0 23 -18 37 -55 44 -111 20
-124 29 -126 84 -1 17 -3 37 -4 42 -1 6 -3 26 -4 45 -1 35 -23 57 -49 48z"/>
<path d="M2040 3769 c-19 -4 -51 -11 -70 -14 -39 -7 -49 -10 -70 -17 -23 -9
-174 -58 -185 -61 -5 -2 -36 -15 -69 -30 -32 -15 -62 -27 -67 -27 -5 0 -9 -4
-9 -10 0 -5 -9 -10 -19 -10 -11 0 -22 -4 -26 -9 -3 -6 -26 -20 -50 -32 -25
-12 -45 -26 -45 -31 0 -4 -5 -8 -12 -8 -24 0 -158 -112 -164 -137 -8 -31 11
-46 46 -38 55 12 80 12 90 -1 13 -14 8 -20 -82 -97 -75 -64 -71 -94 15 -101
54 -5 66 -11 77 -40 5 -14 2 -32 -10 -56 -43 -86 -44 -88 -30 -105 18 -22 25
-20 72 31 74 81 261 268 304 304 104 90 150 126 178 144 17 10 33 21 36 25 5
7 31 21 91 53 44 22 52 32 55 65 2 13 17 48 34 78 27 47 29 58 19 77 -30 58
-43 63 -109 47z"/>
<path d="M2487 3333 c-1 0 -29 -4 -62 -8 -33 -3 -73 -8 -90 -11 -16 -4 -41 -7
-55 -9 -14 -1 -43 -7 -65 -13 -22 -6 -49 -13 -60 -15 -11 -2 -27 -6 -35 -9 -8
-3 -37 -14 -65 -23 -164 -57 -292 -146 -390 -273 -11 -14 -41 -49 -67 -78 -40
-46 -78 -102 -78 -118 0 -2 13 -8 28 -14 21 -7 39 -5 74 8 35 13 50 15 59 6 9
-8 10 -8 5 2 -4 6 -2 12 3 12 22 0 26 2 33 14 6 11 21 13 62 7 5 0 3 -8 -4
-16 -7 -8 -16 -13 -20 -10 -4 3 -11 -2 -14 -11 -3 -8 -2 -12 4 -9 6 3 10 1 10
-6 0 -7 -9 -9 -22 -6 -20 5 -21 4 -7 -6 12 -9 13 -15 5 -24 -18 -20 -32 -37
-37 -48 -2 -5 -10 -9 -17 -9 -9 1 -10 -2 -3 -10 7 -8 1 -26 -18 -56 -15 -25
-43 -74 -63 -110 -19 -36 -65 -110 -101 -165 -37 -55 -67 -106 -67 -114 0 -8
-6 -22 -14 -30 -8 -9 -34 -55 -59 -103 -25 -48 -63 -113 -84 -145 -35 -53
-202 -383 -206 -408 -1 -5 -5 -12 -8 -15 -3 -3 -17 -30 -31 -60 -15 -30 -65
-136 -113 -235 -48 -99 -86 -181 -86 -183 1 -1 -14 -32 -33 -70 -29 -56 -68
-168 -117 -337 -14 -51 -20 -87 -26 -167 l-6 -76 34 -18 c19 -10 38 -17 43
-16 4 2 23 3 42 4 19 1 34 5 34 10 0 4 3 7 8 6 8 -2 74 31 82 41 3 4 16 14 30
22 21 14 27 14 38 3 14 -16 16 -28 2 -19 -5 3 -10 1 -10 -5 0 -6 -5 -8 -10 -5
-6 4 -7 11 -4 17 4 6 -1 6 -14 -1 -12 -6 -24 -17 -28 -24 -5 -7 0 -6 10 3 17
13 21 12 42 -15 13 -17 24 -25 24 -19 0 5 -5 15 -12 22 -17 17 -3 15 33 -4 17
-8 33 -13 36 -11 2 3 -5 8 -17 12 -17 5 -19 9 -9 21 19 23 20 64 2 57 -12 -5
-12 -7 -2 -14 8 -4 10 -11 6 -15 -3 -4 -14 -1 -24 7 -14 12 -16 12 -8 0 5 -10
4 -12 -3 -7 -17 10 -15 14 17 30 28 15 30 14 45 -9 19 -29 20 -36 4 -33 -6 2
-13 -6 -15 -17 -2 -16 -1 -16 5 -4 4 9 15 15 24 13 10 -1 21 3 25 8 3 7 1 8
-5 4 -7 -4 -12 -1 -12 8 0 9 -4 16 -10 16 -5 0 -10 5 -10 11 0 5 5 7 10 4 6
-4 17 -1 25 5 16 13 21 1 7 -16 -4 -5 3 2 15 16 13 14 23 21 23 16 0 -5 6 -3
14 3 17 14 31 -2 20 -21 -5 -10 -4 -10 6 -1 11 10 11 15 0 28 -10 12 -10 19
-2 27 9 9 12 8 12 -4 0 -21 16 -32 26 -17 4 8 3 9 -4 5 -7 -4 -13 -1 -13 6 -1
7 -3 23 -4 36 -1 12 2 25 6 28 5 3 9 0 9 -6 0 -6 4 -9 9 -6 5 4 12 0 15 -6 5
-10 7 -10 12 0 5 10 10 9 25 -4 18 -16 19 -16 13 -1 -6 16 -17 21 -37 18 -4
-1 -16 3 -26 8 -12 7 -22 6 -29 -1 -15 -15 -42 -19 -42 -7 0 5 6 9 13 9 20 0
55 33 50 47 -4 12 21 12 33 1 3 -4 13 -4 22 -1 14 5 15 3 4 -8 -15 -16 -16
-29 -1 -29 5 0 8 4 5 9 -3 5 1 14 9 21 12 10 18 10 30 0 10 -9 15 -9 15 -1 0
6 -4 11 -10 11 -5 0 -10 5 -10 11 0 6 9 8 23 4 19 -5 20 -4 4 5 -9 6 -22 8
-28 4 -7 -4 -10 -1 -7 7 3 8 13 14 23 14 10 0 19 6 21 13 1 7 0 8 -3 2 -7 -15
-23 -12 -17 3 9 24 44 39 60 26 12 -10 13 -9 8 5 -9 24 -29 20 -62 -14 -25
-25 -29 -26 -25 -9 3 11 17 28 32 37 29 19 50 42 51 56 0 6 -7 1 -15 -10 -8
-10 -14 -14 -15 -9 0 14 18 40 28 40 5 0 16 8 25 17 16 16 16 17 0 17 -40 1
-53 5 -53 15 0 5 -6 2 -13 -8 -12 -16 -14 -16 -14 -2 0 9 5 17 11 18 6 0 16 2
21 2 6 1 16 6 24 10 11 7 13 5 8 -7 -4 -10 -2 -17 4 -17 7 0 9 11 5 28 -6 26
-6 26 9 8 8 -11 15 -15 15 -9 0 7 -5 15 -11 19 -7 4 -1 15 17 31 16 13 24 22
17 19 -6 -4 -14 -2 -18 4 -6 9 8 14 28 11 5 -1 5 4 1 11 -12 19 -13 37 -3 44
5 3 9 0 9 -5 0 -6 5 -11 11 -11 8 0 7 5 -1 15 -12 14 -10 15 13 11 16 -3 27 1
31 10 4 11 2 13 -11 5 -19 -10 -66 6 -57 20 3 5 14 4 25 -2 12 -6 23 -8 27 -5
3 3 0 6 -6 6 -7 0 -11 5 -10 11 5 19 -18 21 -35 4 -9 -9 -13 -23 -10 -32 5
-12 3 -14 -8 -8 -11 7 -11 5 1 -10 13 -16 13 -18 0 -13 -8 2 -15 13 -15 24 -1
10 -7 18 -14 16 -7 -1 -10 2 -6 8 3 6 11 8 16 5 5 -4 9 -2 9 4 0 14 52 39 68
34 6 -3 12 2 12 11 0 9 -5 16 -11 16 -5 0 -8 -4 -5 -8 3 -5 -3 -8 -12 -7 -31
2 -22 45 10 45 12 0 17 -4 12 -12 -4 -7 6 -2 23 10 17 12 34 18 39 14 4 -4 0
5 -9 20 -10 16 -13 28 -7 28 6 0 9 4 6 9 -4 5 0 12 6 14 7 3 8 6 2 6 -5 1 -19
-6 -30 -15 -10 -8 -12 -13 -4 -9 8 4 6 -1 -4 -9 -11 -9 -25 -16 -30 -16 -6 0
-4 5 4 10 8 5 11 10 6 10 -5 0 4 11 19 24 15 13 33 23 39 22 6 -2 8 -1 3 1
-14 8 4 22 21 17 14 -5 15 -4 2 5 -11 7 -20 5 -35 -9 -24 -22 -35 -25 -35 -9
0 5 4 8 10 4 5 -3 16 8 25 26 16 29 17 30 31 12 14 -17 14 -16 4 5 -6 12 -15
20 -20 17 -6 -3 -18 -1 -27 5 -13 8 -14 10 -3 9 8 -1 28 3 44 10 23 9 26 14
16 26 -15 18 -1 19 22 1 10 -7 14 -17 10 -21 -4 -5 -1 -5 7 0 11 6 9 11 -9 25
-15 11 -19 19 -11 24 6 4 11 2 11 -3 0 -6 5 -11 10 -11 6 0 3 11 -5 24 -10 15
-12 27 -6 30 5 4 12 -3 16 -14 3 -11 14 -20 23 -20 13 0 13 2 -3 13 -11 9 -15
19 -10 27 5 8 4 11 -3 6 -5 -3 -13 0 -15 6 -4 9 -6 8 -6 -2 -1 -13 -3 -13 -12
0 -9 13 -10 12 -5 -3 3 -11 0 -20 -9 -24 -13 -4 -13 -8 -3 -21 11 -13 10 -15
-5 -9 -10 4 -21 7 -23 7 -3 0 -2 5 2 12 4 7 3 8 -5 4 -6 -4 -9 -12 -6 -17 4
-5 2 -9 -2 -9 -5 0 -9 -9 -9 -19 0 -15 4 -17 18 -10 9 5 19 6 22 1 2 -4 -6
-12 -20 -19 -18 -8 -26 -8 -35 3 -8 9 -8 14 -1 14 14 0 11 40 -3 41 -5 0 8 9
30 20 22 10 36 19 31 19 -5 0 -3 7 4 15 7 8 16 12 21 9 5 -3 9 0 9 7 0 7 8 5
20 -6 11 -10 20 -24 20 -32 0 -7 4 -13 8 -13 4 0 16 -25 27 -56 10 -31 25 -58
32 -61 7 -3 23 -23 35 -44 12 -21 24 -39 27 -39 4 0 7 -13 7 -29 1 -16 11 -39
22 -52 12 -12 19 -25 17 -29 -7 -11 33 -43 44 -35 6 3 11 2 11 -4 0 -5 -5 -11
-12 -13 -7 -3 -3 -13 12 -28 13 -13 24 -36 25 -50 0 -18 5 -24 18 -22 18 3 23
-13 7 -23 -6 -3 1 -22 15 -45 14 -22 25 -44 25 -50 0 -5 5 -10 10 -10 6 0 10
-9 10 -20 0 -11 5 -20 10 -20 6 0 9 -3 8 -8 -1 -7 3 -20 30 -82 8 -19 16 -39
17 -45 2 -5 12 -41 24 -80 11 -38 22 -88 25 -110 2 -22 6 -47 8 -55 3 -15 36
-35 51 -31 5 1 32 4 60 6 48 4 50 4 34 -13 -16 -15 -19 -15 -27 -2 -6 9 -10
10 -10 3 0 -6 4 -14 10 -18 5 -3 7 -13 3 -23 -3 -9 4 -2 16 16 11 17 28 32 36
32 20 0 19 14 -2 31 -16 13 -17 12 -4 -3 8 -11 9 -18 3 -18 -6 0 -16 8 -21 18
-14 27 25 26 44 -1 14 -20 14 -23 -2 -34 -18 -14 -6 -18 15 -5 8 5 10 16 5 28
-6 17 -5 17 10 6 18 -15 41 -7 31 10 -5 8 -1 9 12 5 18 -7 18 -6 2 7 -10 7
-18 19 -18 27 0 11 2 11 11 -1 9 -12 10 -12 5 4 -5 13 -2 17 9 13 8 -4 17 -2
21 4 3 6 13 8 21 5 8 -4 30 3 49 15 29 17 32 24 24 40 -14 24 5 26 19 1 6 -9
11 -12 11 -5 0 6 -4 15 -10 18 -5 3 -10 13 -10 22 0 11 5 9 20 -8 10 -13 19
-18 20 -11 0 6 -4 12 -10 12 -5 0 -10 7 -10 15 0 8 -6 15 -12 15 -9 0 -8 3 2
10 8 5 12 11 10 14 -3 2 -16 -4 -30 -15 -17 -13 -19 -17 -6 -13 16 6 17 4 7
-14 -15 -29 -26 -28 -29 3 -1 14 2 25 6 25 5 0 28 18 51 39 33 30 43 48 45 75
4 48 11 53 31 22 10 -14 22 -26 29 -26 6 0 4 5 -4 10 -8 5 -11 10 -6 10 5 0
-3 9 -18 21 -23 18 -38 48 -18 35 5 -3 7 5 6 17 -1 12 -3 28 -3 35 -1 7 -5 10
-11 7 -5 -3 -10 -1 -10 5 0 6 -5 8 -10 5 -6 -4 -9 -3 -8 2 1 4 -4 18 -11 31
-10 18 -10 26 0 38 9 11 9 14 0 14 -7 0 -9 5 -5 12 4 6 3 8 -3 5 -11 -7 -42
21 -42 38 0 5 -4 11 -10 13 -6 2 -11 -2 -11 -9 0 -7 -3 -9 -7 -6 -3 4 -12 2
-20 -5 -7 -6 -16 -8 -20 -5 -8 9 17 38 27 32 5 -3 12 0 15 6 4 5 14 8 22 5 8
-3 11 -1 8 5 -4 5 -16 7 -27 3 -14 -4 -18 -2 -14 5 4 6 1 21 -5 33 -11 20 -10
21 2 11 12 -10 15 -8 15 6 0 12 -5 17 -15 13 -10 -4 -13 -1 -8 11 4 11 2 14
-8 11 -9 -4 -16 6 -21 28 -4 18 -7 37 -6 41 2 5 -2 6 -8 2 -5 -3 -10 1 -10 9
0 9 -5 16 -11 16 -6 0 -9 9 -6 19 3 13 -1 21 -14 24 -11 3 -17 1 -13 -4 7 -12
-7 -11 -26 1 -11 7 -11 10 -2 10 7 0 10 5 6 12 -4 6 1 17 11 25 23 16 12 17
-17 2 -15 -8 -19 -8 -14 0 4 6 1 11 -6 11 -9 0 -9 3 2 10 11 7 11 10 2 10 -7
0 -11 4 -8 9 3 5 -1 12 -10 15 -14 5 -14 9 -3 23 10 12 10 14 2 9 -9 -5 -13
-1 -13 12 0 17 -24 37 -41 34 -3 -1 -4 9 -2 22 6 29 -12 42 -34 24 -14 -11
-16 -11 -8 1 6 11 4 13 -7 9 -8 -4 -21 -2 -29 3 -10 6 -6 9 14 9 16 0 35 7 43
15 14 13 14 15 0 15 -9 0 -16 7 -16 15 0 8 -4 16 -10 16 -5 1 -15 2 -22 3 -6
0 -12 9 -14 19 -1 9 2 15 7 11 5 -3 6 -10 3 -16 -4 -7 -2 -8 4 -4 6 4 8 14 5
23 -5 12 -3 14 8 8 11 -7 12 -6 3 6 -9 11 -6 19 14 39 21 21 24 22 18 5 -4
-11 -3 -16 1 -11 4 4 8 24 8 44 0 28 5 38 19 40 10 2 22 0 28 -6 6 -6 0 -8
-16 -7 -15 2 -24 -1 -21 -5 3 -5 13 -7 23 -4 16 5 16 5 0 -9 -10 -8 -18 -18
-18 -22 0 -5 11 2 25 15 14 13 25 19 25 13 0 -6 -7 -16 -15 -23 -20 -16 -11
-27 21 -27 17 0 22 2 13 7 -6 5 -19 5 -28 2 -14 -5 -14 -4 -2 11 11 14 17 15
30 5 14 -11 14 -11 3 3 -7 9 -10 23 -6 32 3 8 1 18 -5 22 -7 4 -8 0 -4 -11 4
-11 3 -15 -5 -10 -6 3 -10 15 -9 26 1 10 3 17 5 15 2 -2 18 5 34 15 17 10 38
16 46 12 11 -4 13 -2 7 8 -5 9 -4 11 3 6 7 -4 12 -2 12 3 0 6 4 11 8 11 5 0 9
-7 9 -15 0 -8 -4 -12 -9 -9 -7 5 -12 -10 -9 -28 2 -14 -11 -9 -26 10 -13 16
-13 15 -4 -3 6 -13 6 -27 -1 -39 -5 -9 -7 -20 -4 -23 3 -4 6 -1 6 6 0 7 4 9
10 6 6 -4 7 1 3 12 -6 15 -4 16 9 5 13 -10 18 -10 24 -1 4 7 3 9 -4 5 -7 -4
-10 1 -9 14 1 11 8 20 15 20 8 0 12 6 9 14 -3 8 1 22 8 33 8 10 15 14 15 9 0
-5 8 -2 19 8 15 14 20 14 30 2 9 -11 8 -15 -4 -20 -17 -6 -21 -26 -4 -26 5 0
7 5 4 10 -3 6 1 10 10 10 9 0 14 -4 11 -9 -6 -9 44 -35 52 -26 3 3 0 5 -6 5
-14 0 -42 28 -42 42 0 7 4 7 13 0 10 -8 16 -6 25 9 7 10 17 19 24 19 6 0 4 -8
-6 -19 -10 -11 -16 -26 -13 -33 4 -9 6 -8 6 3 1 8 12 26 26 39 l25 23 0 -21
c0 -12 -5 -21 -11 -19 -6 1 -14 -5 -16 -13 -3 -10 -2 -11 4 -4 4 6 15 10 25 9
13 -2 15 2 8 25 -8 28 -5 40 11 40 5 0 6 -6 3 -14 -3 -7 20 10 50 38 47 43 55
55 51 79 -5 27 8 37 21 15 5 -7 3 -8 -5 -3 -10 6 -11 3 -1 -15 9 -17 9 -25 -4
-39 -9 -10 -16 -23 -16 -29 0 -7 -3 -11 -7 -10 -5 0 -16 -2 -25 -6 -19 -9 -25
-36 -7 -36 5 0 8 4 5 9 -8 12 16 29 36 26 11 -2 15 2 11 11 -6 15 21 47 31 36
4 -3 4 2 0 13 -7 18 -6 19 11 5 18 -14 18 -14 2 11 -16 24 -14 39 5 39 4 0 7
-3 7 -7 -1 -5 -1 -15 0 -23 1 -13 2 -13 11 0 5 8 5 19 0 25 -6 7 -3 17 9 27
17 15 20 14 30 -6 11 -20 10 -12 -5 32 -4 13 -1 11 14 -5 11 -13 24 -23 28
-23 4 0 -1 10 -12 21 -19 21 -19 22 4 15 14 -5 22 -3 22 4 0 6 -4 9 -9 6 -5
-4 -12 0 -14 6 -4 9 -8 10 -14 2 -4 -6 -16 -10 -25 -9 -11 2 -15 -2 -11 -11 4
-10 0 -12 -11 -8 -15 6 -21 -5 -17 -29 1 -5 -9 -6 -21 -2 -16 4 -19 3 -9 -3 8
-6 9 -12 3 -16 -5 -3 -12 0 -15 8 -6 16 78 91 102 91 9 0 19 4 23 9 9 13 38
-12 32 -28 -3 -7 2 -19 11 -26 9 -7 15 -8 15 -2 0 6 -6 13 -12 15 -10 4 -9 8
2 16 23 16 29 13 24 -11 l-5 -23 10 22 c11 25 45 46 56 35 5 -4 5 -1 1 6 -4 7
-1 15 8 18 9 3 16 14 16 23 1 20 28 57 36 48 9 -9 46 12 39 23 -3 5 4 14 15
20 16 9 20 8 20 -6 0 -10 3 -15 6 -11 4 3 4 13 0 22 -4 12 -10 14 -25 5 -17
-8 -20 -7 -18 10 1 22 25 22 54 0 16 -14 17 -13 5 2 -11 14 -10 18 8 31 13 9
18 20 14 31 -9 24 18 16 33 -9 15 -25 17 -11 2 16 -5 11 -14 17 -20 14 -5 -4
-9 -1 -9 4 0 15 23 14 39 -1 11 -11 11 -9 0 9 -10 17 -17 19 -31 12 -10 -5
-18 -14 -18 -20 0 -6 -5 -7 -12 -3 -7 5 -8 3 -3 -6 6 -10 4 -12 -8 -7 -10 3
-17 2 -17 -4 0 -6 -4 -7 -10 -4 -5 3 -10 11 -10 16 0 6 4 8 9 5 9 -6 53 56 57
79 5 30 11 41 27 53 9 7 17 20 17 28 0 8 4 14 8 14 4 0 8 -9 8 -20 0 -11 -5
-20 -10 -20 -5 0 -7 -2 -4 -5 3 -4 23 5 43 20 21 14 34 25 29 25 -5 0 -20 -7
-32 -16 -12 -8 -22 -11 -22 -5 0 15 42 41 54 34 6 -4 3 3 -6 14 -26 29 -22 40
5 15 18 -17 24 -19 24 -8 0 8 -5 12 -10 9 -6 -4 -8 0 -4 10 4 12 2 14 -11 10
-15 -6 -15 -4 -4 10 8 8 21 13 30 10 14 -4 14 -3 3 5 -8 6 -21 7 -30 4 -11 -4
-10 2 6 24 11 16 18 36 15 44 -5 13 -3 13 12 1 14 -12 16 -12 10 3 -3 9 -10
16 -16 16 -5 0 -6 5 -3 10 3 6 2 10 -4 10 -6 0 -9 -14 -7 -30 2 -19 -2 -33
-11 -39 -8 -4 -14 -12 -13 -17 1 -5 -4 -10 -10 -12 -9 -3 -9 1 -2 14 5 11 8
27 7 37 -2 9 1 15 6 11 12 -7 11 3 -2 28 -7 13 -7 18 -1 14 6 -3 17 3 25 14 7
11 17 17 22 12 4 -4 3 3 -4 15 -7 14 -17 20 -26 17 -8 -4 -15 -8 -15 -11 0 -3
7 -3 15 1 17 6 19 -2 6 -23 -5 -7 -13 -11 -19 -7 -11 7 -10 31 1 42 11 11 8
26 -3 19 -6 -4 -10 -3 -9 2 4 21 -2 34 -13 27 -7 -4 -8 -3 -4 5 4 6 12 9 17 6
5 -4 8 12 7 34 -1 22 -5 38 -11 34 -5 -3 -5 3 1 13 14 27 -6 50 -40 48 -29 -3
-46 10 -28 21 17 10 11 25 -9 25 -15 0 -19 6 -18 28 2 23 -2 27 -20 24 -23 -3
-27 5 -23 41 1 15 -3 17 -20 12 -59 -19 -84 -8 -73 33 3 15 2 23 -4 19 -5 -3
-21 0 -35 7 -17 9 -30 10 -36 4 -5 -5 -29 -7 -55 -3 -37 6 -47 12 -49 29 -2
11 -8 20 -13 20 -6 -1 -24 -5 -42 -9 -26 -5 -32 -3 -38 15 -6 19 -9 20 -28 7
-12 -8 -28 -12 -36 -9 -9 3 -2 10 18 18 34 14 44 39 12 29 -27 -8 -110 -13
-117 -6 -4 5 -133 9 -137 4z m-97 -417 c0 5 14 10 30 10 32 2 40 -10 15 -20
-17 -6 -20 -32 -6 -40 5 -4 7 4 3 16 -5 20 -4 21 11 9 9 -7 14 -18 10 -24 -3
-6 -1 -7 6 -3 9 6 9 11 1 21 -6 7 -8 20 -4 29 7 19 44 22 45 4 0 -10 2 -10 6
0 2 6 9 12 14 12 6 0 7 -4 4 -10 -3 -5 -1 -10 4 -10 6 0 11 6 11 13 0 7 3 8 8
2 4 -5 15 -11 25 -13 9 -2 36 -13 60 -25 30 -17 41 -28 39 -42 -2 -17 -1 -17
7 -5 11 16 10 16 74 -60 26 -31 32 -62 31 -160 0 -64 -6 -97 -22 -132 -58
-130 -179 -263 -309 -339 -226 -133 -284 -166 -343 -195 -36 -18 -68 -32 -71
-31 -4 1 -15 -5 -25 -14 -11 -9 -35 -21 -54 -28 -19 -7 -45 -18 -57 -23 -11
-6 -27 -7 -34 -3 -8 5 -10 4 -5 -3 5 -8 0 -12 -13 -12 -12 0 -21 -4 -21 -9 0
-6 -8 -9 -17 -9 -10 0 -22 0 -28 -2 -24 -6 -34 1 -30 22 6 28 20 36 56 32 27
-3 28 -3 11 15 -15 16 -19 16 -35 3 -16 -14 -17 -14 -13 9 3 13 5 30 5 37 1 7
6 10 12 6 6 -4 9 1 7 13 -4 26 19 53 39 46 13 -5 15 -2 10 11 -6 14 -2 16 23
12 17 -2 28 -1 25 4 -3 5 -2 10 2 12 5 1 -3 14 -16 28 -22 23 -23 23 -12 3 6
-13 10 -23 9 -24 -2 -1 -32 -2 -68 -4 -36 -1 -56 1 -45 5 11 4 23 6 28 3 4 -2
7 1 7 6 0 6 3 10 8 9 4 -1 19 6 35 16 20 14 25 22 17 31 -8 10 -8 15 1 21 7 4
9 3 5 -4 -3 -6 -2 -13 4 -17 5 -3 10 1 10 9 0 9 2 16 4 16 2 0 11 3 20 6 9 3
16 1 16 -6 0 -6 -4 -9 -9 -6 -5 3 -15 -4 -24 -17 -13 -20 -13 -24 0 -36 13
-12 14 -11 8 10 -7 21 -6 22 7 11 21 -17 44 9 30 35 -5 10 -7 24 -5 31 3 6 0
12 -7 12 -6 0 -8 -4 -5 -10 3 -6 -1 -7 -9 -4 -23 9 -20 24 4 24 11 0 23 6 26
14 3 8 12 17 20 20 8 3 13 2 10 -3 -3 -5 1 -12 9 -15 12 -4 13 -2 6 13 -6 10
-7 22 -3 26 4 5 2 5 -5 1 -6 -3 -14 -2 -18 4 -4 6 -10 8 -15 5 -5 -3 -11 -1
-15 5 -3 5 -2 10 4 10 5 0 17 3 27 7 13 5 16 3 12 -9 -4 -10 0 -14 15 -13 16
1 23 9 24 26 l2 24 -7 -25 c-5 -15 -11 -20 -15 -13 -8 13 1 43 14 43 5 0 9 4
9 8 0 5 -7 9 -15 9 -8 0 -12 -4 -9 -9 3 -4 0 -8 -6 -8 -6 0 -8 -4 -5 -10 3 -5
2 -10 -3 -10 -11 0 -25 30 -17 38 3 3 5 -1 6 -9 0 -8 4 -4 10 9 5 13 13 20 19
17 6 -3 17 1 26 9 17 18 39 22 29 6 -3 -5 -2 -10 3 -10 18 0 21 28 4 42 -9 8
-13 8 -9 1 7 -11 -28 -30 -46 -25 -5 1 -6 -1 -3 -6 3 -5 -4 -8 -14 -7 -35 2
-33 14 4 21 38 7 57 28 49 54 -3 8 7 2 21 -14 14 -16 29 -26 32 -23 4 4 -4 16
-17 27 -22 19 -22 20 -4 18 11 -2 25 -9 31 -17 9 -11 12 -12 19 -1 6 9 4 11
-5 5 -10 -6 -12 -4 -7 9 4 10 3 15 -3 11 -6 -3 -11 -1 -11 4 -1 6 -2 17 -3 24
-2 13 -25 11 -40 -3 -4 -4 0 -7 9 -7 10 1 19 -2 21 -8 2 -5 -12 -11 -31 -11
-19 -1 -35 3 -35 8 0 5 4 7 9 3 5 -3 12 4 16 15 3 11 12 20 20 20 16 0 45 44
37 56 -4 5 -17 9 -30 9 -12 0 -21 5 -20 10 2 6 8 8 13 6 6 -2 17 -5 25 -6 8
-2 16 -4 18 -4 11 -4 17 1 17 14 0 18 18 21 24 4 2 -6 -1 -9 -7 -5 -6 4 -8 -2
-4 -16 3 -14 2 -19 -6 -14 -11 6 -14 1 -11 -20 0 -3 -8 -12 -18 -20 -10 -7
-13 -14 -7 -14 14 0 36 25 28 33 -3 3 4 8 15 12 13 4 18 12 14 23 -5 14 -3 15
8 5 7 -7 18 -13 24 -13 5 0 2 5 -7 11 -10 5 -18 15 -18 21 0 7 5 6 15 -2 15
-12 20 -4 16 23 -2 11 17 9 24 -3 3 -5 11 -10 18 -10 6 0 2 7 -10 15 -21 15
-22 52 -2 39 5 -3 7 -9 4 -14 -3 -5 5 -14 17 -20 22 -11 22 -10 4 4 -11 9 -16
16 -12 16 5 0 4 6 -2 13 -6 7 -9 25 -8 40 2 15 -1 30 -7 34 -6 3 -7 1 -3 -5 4
-7 2 -12 -4 -12 -6 0 -9 -4 -5 -9 3 -5 1 -12 -5 -16 -6 -4 -9 4 -8 19 3 28 25
43 42 26 5 -5 17 -10 26 -9 9 0 6 4 -7 9 -13 5 -23 14 -23 20 0 8 6 8 20 0 19
-10 25 -4 21 23 0 4 4 7 9 7 6 0 10 -6 10 -12 0 -7 9 1 19 18 21 35 48 57 39
32 -4 -8 0 -15 7 -15 10 0 11 5 4 19 -9 17 -5 22 16 18 6 -1 5 4 -1 10 -9 9
-19 4 -43 -21 -17 -17 -31 -36 -31 -41 0 -5 -5 -6 -10 -3 -8 5 -7 11 1 21 8
10 8 14 0 14 -6 0 -11 -5 -11 -12 0 -6 -7 -3 -15 8 -15 19 -15 19 -9 -1 6 -16
4 -18 -6 -8 -11 10 -7 18 18 44 17 18 29 35 27 39 -3 4 5 10 16 13 12 3 18 3
15 0 -11 -12 15 -31 34 -26 11 3 20 0 20 -6 0 -6 5 -11 11 -11 8 0 8 5 -1 15
-7 8 -18 15 -26 15 -7 0 -16 5 -20 11 -11 18 38 0 64 -24 12 -11 22 -18 22
-15 0 10 -48 57 -53 51 -3 -3 -11 -2 -17 2 -9 6 -9 10 1 16 8 4 19 3 26 -3 7
-6 13 -6 13 -2z m-60 -4 c0 -5 -7 -9 -15 -9 -8 0 -15 4 -15 9 0 4 7 8 15 8 8
0 15 -4 15 -8z m-77 -126 c3 4 5 -3 4 -15 -1 -11 -7 -21 -15 -21 -7 0 -10 5
-7 10 10 17 -7 11 -22 -7 -14 -17 -14 -17 -9 0 3 10 6 25 6 33 0 11 4 12 19 5
10 -6 21 -8 24 -5z m-62 -145 c-11 -21 -17 -41 -14 -45 4 -3 1 -6 -4 -6 -18 0
-21 24 -4 36 13 10 13 14 1 30 -13 16 -13 17 2 11 10 -3 20 -2 23 3 4 6 8 10
11 10 2 0 -4 -17 -15 -39z m1099 11 c0 -4 -5 -13 -12 -20 -8 -8 -8 -15 0 -24
8 -11 6 -17 -10 -27 -19 -12 -20 -11 -13 30 7 39 6 42 -14 36 -12 -3 -19 -1
-15 4 6 11 64 12 64 1z m-1120 -11 c0 -5 -7 -11 -15 -15 -9 -3 -12 -12 -8 -23
6 -16 5 -16 -11 -4 -16 13 -16 15 -1 23 8 5 13 13 10 19 -4 5 1 9 9 9 9 0 16
-4 16 -9z m-173 -198 c0 -9 -4 -10 -14 -2 -7 6 -13 12 -13 14 0 1 6 2 13 2 8
0 14 -6 14 -14z m1183 -77 c0 -2 -10 -11 -22 -22 -18 -16 -21 -17 -15 -2 4 12
2 15 -8 11 -8 -3 -12 -10 -8 -16 3 -6 1 -7 -6 -3 -6 4 -9 11 -7 15 3 4 -1 8
-8 8 -8 0 -12 -7 -8 -15 3 -10 1 -13 -6 -8 -6 3 -14 1 -18 -5 -4 -7 -3 -9 4
-5 6 3 13 2 17 -4 6 -9 -10 -14 -42 -13 -7 1 -10 -4 -7 -9 3 -5 -2 -16 -12
-24 -18 -14 -18 -15 2 -5 15 7 24 7 32 -1 9 -9 10 -6 7 11 -2 14 0 21 7 19 15
-5 19 -38 5 -39 -7 -1 -16 -2 -22 -4 -5 -1 -16 -3 -22 -3 -7 -1 -12 -7 -10
-13 1 -6 -4 -14 -11 -16 -7 -3 -10 1 -6 10 7 20 -14 33 -29 18 -9 -9 -8 -11 6
-6 10 4 17 2 17 -5 0 -6 -4 -9 -9 -5 -6 3 -15 -4 -21 -16 -9 -17 -9 -20 0 -14
9 5 10 1 5 -16 -5 -18 -4 -21 4 -9 6 8 8 24 5 35 -6 19 -6 19 12 2 18 -18 18
-19 -15 -47 -32 -27 -51 -31 -51 -10 0 5 8 6 17 3 15 -6 16 -5 3 9 -8 9 -16
12 -18 8 -2 -5 -10 -6 -18 -3 -7 3 -11 9 -8 14 3 5 10 7 15 4 5 -4 9 -1 9 6 0
7 7 4 16 -7 14 -17 15 -18 10 -1 -3 11 -3 24 1 30 8 12 9 17 12 37 0 6 10 10
21 10 13 0 24 10 31 26 5 15 12 24 16 20 3 -3 14 7 24 23 15 26 24 29 63 29
25 0 46 -1 46 -2z m-250 -216 c0 -5 -4 -10 -10 -10 -5 0 -10 5 -10 10 0 6 5
10 10 10 6 0 10 -4 10 -10z m-1002 -32 c-2 -5 -8 -9 -13 -9 -5 0 -11 4 -13 9
-1 5 4 9 13 9 9 0 14 -4 13 -9z m787 -108 c-1 -18 -39 -60 -55 -60 -4 0 -7 7
-7 15 0 8 5 14 11 13 7 -2 13 2 15 7 13 42 39 60 36 25z m-39 -12 c1 -9 -5
-15 -14 -14 -12 1 -17 -7 -17 -29 0 -20 -4 -29 -14 -27 -7 2 -25 -7 -39 -20
-19 -18 -24 -19 -19 -6 3 10 1 20 -6 24 -7 4 -9 4 -5 0 4 -5 -3 -19 -15 -32
-23 -24 -58 -27 -65 -5 -3 10 0 10 19 0 23 -12 23 -11 9 6 -14 17 -14 18 10 5
24 -13 24 -12 10 5 -14 17 -13 18 2 13 10 -4 19 -1 22 7 3 9 12 12 22 8 14 -5
16 -3 10 12 -4 11 -4 16 0 12 4 -4 13 -2 21 4 17 14 17 -2 1 -21 -11 -12 -10
-12 2 -2 9 6 22 27 30 47 14 36 31 42 36 13z m-472 -257 c3 -5 -7 -24 -23 -42
-16 -18 -27 -37 -25 -41 3 -4 0 -8 -5 -8 -6 0 -11 5 -11 10 0 6 -8 10 -17 10
-15 0 -16 2 -3 10 10 6 11 10 3 10 -7 0 -13 5 -13 11 0 5 5 7 10 4 6 -3 10 -1
10 4 0 6 5 11 11 11 6 0 9 -7 6 -15 -4 -8 -1 -17 5 -21 7 -5 8 -2 3 6 -6 9 -4
11 4 5 10 -6 11 -3 2 13 -15 28 -14 30 12 35 12 2 23 5 24 6 1 0 4 -3 7 -8z
m-634 -325 c0 -3 -4 -8 -10 -11 -5 -3 -10 -1 -10 4 0 6 5 11 10 11 6 0 10 -2
10 -4z m-40 -91 c0 -8 -5 -15 -11 -15 -5 0 -8 4 -5 9 4 5 0 12 -6 14 -8 3 -6
6 5 6 9 1 17 -6 17 -14z m-5 -135 c-5 -8 -10 -8 -21 1 -12 10 -13 9 -8 -5 5
-12 2 -15 -10 -10 -22 9 -20 19 7 31 24 12 43 2 32 -17z m-110 -178 c18 -13
15 -31 -5 -37 -19 -6 -29 -26 -12 -24 20 3 18 -4 -11 -33 -32 -31 -63 -43 -73
-26 -3 4 2 11 11 15 10 3 20 0 25 -6 5 -9 9 -8 14 4 3 9 3 22 -1 28 -4 6 0 8
10 4 19 -7 20 -6 11 17 -3 9 -10 13 -15 10 -14 -8 -6 17 11 37 17 20 21 21 35
11z m-35 -182 c0 -5 -3 -9 -7 -8 -15 3 -43 -14 -37 -23 3 -5 0 -9 -7 -9 -9 0
-9 -3 0 -14 10 -12 7 -18 -19 -31 -18 -9 -29 -12 -26 -6 4 6 2 11 -5 11 -13 0
-3 14 12 16 5 1 13 2 18 3 6 0 8 10 6 22 -3 15 2 23 15 26 11 3 20 9 20 14 0
5 7 9 15 9 8 0 15 -4 15 -10z m-105 -162 c-1 -25 -6 -32 -23 -33 -12 -1 -22 2
-22 7 0 4 7 8 15 8 9 0 15 9 15 25 0 14 4 25 8 25 5 0 8 -14 7 -32z m1171 -85
c-27 -14 -36 -26 -12 -17 11 4 14 -1 12 -20 -2 -14 1 -23 5 -20 5 3 7 16 5 30
-5 28 6 31 29 8 15 -16 14 -18 -15 -37 -27 -17 -33 -18 -41 -6 -7 11 -11 10
-23 -6 -17 -22 -17 -21 -21 12 -1 14 2 20 9 16 16 -11 46 -11 40 -1 -4 5 -12
7 -20 4 -22 -9 -16 6 14 35 15 15 31 24 36 21 5 -3 -3 -11 -18 -19z m-1296
-57 c-10 -17 -24 -32 -30 -32 -5 -1 -12 -3 -15 -4 -3 -1 -9 -4 -15 -5 -5 -1
-11 -4 -12 -5 -11 -10 -48 -5 -48 7 0 10 6 12 19 8 11 -3 23 -1 26 6 6 8 10 7
17 -2 8 -11 9 -10 4 4 -6 19 4 22 22 7 6 -6 10 -7 7 -4 -3 4 3 13 12 19 15 11
14 12 -7 9 -14 -2 -34 -5 -45 -8 -11 -2 -24 -5 -30 -5 -5 -1 -3 -6 5 -11 8 -5
11 -10 5 -10 -5 0 -16 4 -23 9 -16 10 -1 18 63 36 63 17 67 15 45 -19z m1211
-30 c-7 -8 -10 -26 -7 -40 5 -26 -7 -35 -19 -16 -4 6 -10 8 -15 5 -5 -3 -14 5
-21 17 -6 13 -8 20 -4 16 7 -7 24 4 53 35 19 20 30 4 13 -17z m-111 -66 c0 -5
-2 -10 -4 -10 -3 0 -8 5 -11 10 -3 6 -1 10 4 10 6 0 11 -4 11 -10z m-1255 -21
c-10 -15 -25 -10 -19 6 4 8 10 12 15 9 5 -3 7 -10 4 -15z"/>
<path d="M2401 2911 c-8 -5 -9 -11 -3 -15 5 -3 12 1 16 9 6 17 6 18 -13 6z"/>
<path d="M2475 2910 c-3 -5 -2 -17 3 -26 8 -14 10 -12 10 9 0 29 -3 33 -13 17z"/>
<path d="M2536 2885 c4 -8 8 -15 10 -15 2 0 4 7 4 15 0 8 -4 15 -10 15 -5 0
-7 -7 -4 -15z"/>
<path d="M2288 2862 c-27 -31 -27 -38 -3 -37 34 0 47 16 31 37 -12 17 -14 17
-28 0z m27 -11 c7 -12 -12 -24 -25 -16 -11 7 -4 25 10 25 5 0 11 -4 15 -9z"/>
<path d="M2515 2860 c-3 -5 -1 -10 4 -10 6 0 11 5 11 10 0 6 -2 10 -4 10 -3 0
-8 -4 -11 -10z"/>
<path d="M2590 2858 c0 -4 4 -8 9 -8 6 0 12 4 15 8 3 5 -1 9 -9 9 -8 0 -15 -4
-15 -9z"/>
<path d="M2389 2823 c-13 -16 -12 -17 4 -4 9 7 17 15 17 17 0 8 -8 3 -21 -13z"/>
<path d="M2295 2739 c-3 -4 2 -6 10 -5 21 3 28 13 10 13 -9 0 -18 -4 -20 -8z"/>
<path d="M2270 2699 c0 -5 5 -7 10 -4 6 3 10 8 10 11 0 2 -4 4 -10 4 -5 0 -10
-5 -10 -11z"/>
<path d="M2230 2688 c0 -4 4 -8 9 -8 6 0 12 4 15 8 3 5 -1 9 -9 9 -8 0 -15 -4
-15 -9z"/>
<path d="M2230 2659 c0 -5 5 -7 10 -4 6 3 10 8 10 11 0 2 -4 4 -10 4 -5 0 -10
-5 -10 -11z"/>
<path d="M2246 2641 c-3 -4 6 -7 19 -7 14 0 22 2 19 5 -8 8 -34 10 -38 2z"/>
<path d="M2215 2551 c-3 -5 -2 -12 3 -15 5 -3 9 1 9 9 0 17 -3 19 -12 6z"/>
<path d="M2140 2526 c0 -2 7 -9 15 -16 13 -11 14 -10 9 4 -5 14 -24 23 -24 12z"/>
<path d="M2134 2502 c3 -6 -2 -13 -11 -15 -16 -4 -16 -5 -1 -6 21 -1 32 15 17
25 -7 4 -9 3 -5 -4z"/>
<path d="M2100 2465 c0 -8 29 -12 39 -5 9 5 4 8 -13 8 -14 0 -26 -2 -26 -3z"/>
<path d="M2136 2435 c-9 -26 -7 -32 5 -12 6 10 9 21 6 23 -2 3 -7 -2 -11 -11z"/>
<path d="M2105 2380 c-3 -6 1 -7 9 -4 18 7 21 14 7 14 -6 0 -13 -4 -16 -10z"/>
<path d="M2020 2340 c0 -5 5 -10 11 -10 5 0 7 5 4 10 -3 6 -8 10 -11 10 -2 0
-4 -4 -4 -10z"/>
<path d="M2065 2320 c-3 -6 1 -7 9 -4 18 7 21 14 7 14 -6 0 -13 -4 -16 -10z"/>
<path d="M2032 2311 c-11 -7 -11 -9 0 -14 9 -3 15 1 15 9 0 8 -1 14 -1 14 -1
0 -7 -4 -14 -9z"/>
<path d="M2010 2240 c0 -4 7 -7 15 -6 23 3 26 12 5 13 -11 1 -20 -2 -20 -7z"/>
<path d="M1990 2235 c0 -5 5 -17 10 -25 5 -8 10 -10 10 -5 0 6 -5 17 -10 25
-5 8 -10 11 -10 5z"/>
<path d="M1939 2193 c-8 -10 -9 -14 -2 -10 8 5 18 -4 28 -24 16 -30 17 -30 36
-13 10 9 19 19 19 22 0 3 -10 -3 -22 -14 -20 -18 -21 -18 -15 -1 4 11 3 16 -3
12 -6 -3 -11 -1 -11 4 -3 26 -4 30 -10 35 -3 4 -12 -1 -20 -11z"/>
<path d="M1988 2183 c7 -3 16 -2 19 1 4 3 -2 6 -13 5 -11 0 -14 -3 -6 -6z"/>
<path d="M1945 2155 c4 -11 8 -29 7 -40 0 -11 2 -14 5 -7 3 6 9 9 15 6 5 -4 2
6 -8 22 -24 38 -29 43 -19 19z"/>
<path d="M1931 2087 c2 -1 13 -9 24 -17 19 -14 19 -14 6 3 -7 9 -18 17 -24 17
-6 0 -8 -1 -6 -3z"/>
<path d="M1842 2071 c-11 -7 -11 -9 0 -14 9 -3 15 1 15 9 0 8 -1 14 -1 14 -1
0 -7 -4 -14 -9z"/>
<path d="M1910 2070 c0 -6 7 -10 15 -10 8 0 15 2 15 4 0 2 -7 6 -15 10 -8 3
-15 1 -15 -4z"/>
<path d="M1926 2038 c3 -5 10 -6 15 -3 13 9 11 12 -6 12 -8 0 -12 -4 -9 -9z"/>
<path d="M1893 1995 c0 -8 4 -12 9 -9 4 3 8 9 8 15 0 5 -4 9 -8 9 -5 0 -9 -7
-9 -15z"/>
<path d="M1820 1979 c0 -5 -6 -7 -12 -3 -10 6 -10 5 -1 -8 7 -8 10 -18 6 -21
-3 -4 -1 -7 6 -7 7 0 11 6 8 14 -3 7 0 19 6 25 8 8 8 11 -1 11 -7 0 -12 -5
-12 -11z"/>
<path d="M1840 1959 c0 -5 5 -7 10 -4 6 3 10 8 10 11 0 2 -4 4 -10 4 -5 0 -10
-5 -10 -11z"/>
<path d="M1893 1949 c-2 -23 3 -25 10 -4 4 8 3 16 -1 19 -4 3 -9 -4 -9 -15z"/>
<path d="M1855 1939 c-4 -6 -4 -13 -1 -16 3 -4 6 -1 6 6 0 7 5 9 12 5 7 -4 8
-3 4 4 -9 15 -13 15 -21 1z"/>
<path d="M1785 1921 c-3 -5 3 -7 14 -4 11 3 21 -2 24 -11 7 -18 27 -22 27 -5
0 5 -5 7 -12 3 -7 -5 -9 -2 -6 7 6 17 -37 25 -47 10z"/>
<path d="M1771 1851 c-10 -7 -10 -10 -1 -16 6 -4 16 -3 22 3 13 13 -4 23 -21
13z"/>
<path d="M1810 1845 c0 -8 2 -15 4 -15 2 0 6 7 10 15 3 8 1 15 -4 15 -6 0 -10
-7 -10 -15z"/>
<path d="M2180 1730 c-8 -5 -12 -12 -9 -15 4 -3 12 1 19 10 14 17 11 19 -10 5z"/>
<path d="M1391 997 c-8 -10 -7 -14 2 -14 8 0 14 6 14 14 0 7 -1 13 -2 13 -2 0
-8 -6 -14 -13z"/>
<path d="M2320 470 c-6 -11 -8 -20 -6 -20 3 0 10 9 16 20 6 11 8 20 6 20 -3 0
-10 -9 -16 -20z"/>
<path d="M3330 2925 c0 -5 5 -17 10 -25 5 -8 10 -10 10 -5 0 6 -5 17 -10 25
-5 8 -10 11 -10 5z"/>
<path d="M3303 2904 c4 -4 1 -14 -6 -23 -11 -14 -10 -15 8 -1 11 8 21 15 23
16 2 1 -5 5 -15 8 -9 4 -14 4 -10 0z"/>
<path d="M3310 2860 c0 -5 7 -7 15 -4 8 4 15 8 15 10 0 2 -7 4 -15 4 -8 0 -15
-4 -15 -10z"/>
<path d="M1727 2791 c-4 -17 -3 -21 5 -13 5 5 8 16 6 23 -3 8 -7 3 -11 -10z"/>
<path d="M3336 2778 c3 -5 10 -6 15 -3 13 9 11 12 -6 12 -8 0 -12 -4 -9 -9z"/>
<path d="M1700 2759 c0 -11 -4 -18 -8 -15 -4 2 -14 0 -22 -5 -11 -7 -8 -8 10
-6 17 3 26 11 28 25 2 12 1 22 -2 22 -3 0 -6 -9 -6 -21z"/>
<path d="M1650 2760 c0 -5 5 -10 10 -10 6 0 10 5 10 10 0 6 -4 10 -10 10 -5 0
-10 -4 -10 -10z"/>
<path d="M1647 2719 c7 -7 15 -10 18 -7 3 3 -2 9 -12 12 -14 6 -15 5 -6 -5z"/>
<path d="M3331 2696 c-9 -10 -9 -16 -1 -21 6 -4 14 -4 17 -1 4 3 0 6 -8 6 -12
0 -12 2 1 10 8 5 12 12 9 15 -4 3 -12 -1 -18 -9z"/>
<path d="M3340 2640 c-9 -6 -10 -10 -3 -10 6 0 15 5 18 10 8 12 4 12 -15 0z"/>
<path d="M3295 2540 c-3 -6 1 -7 9 -4 18 7 21 14 7 14 -6 0 -13 -4 -16 -10z"/>
<path d="M3265 2519 c-4 -6 -18 -9 -30 -7 -15 3 -22 1 -18 -7 6 -17 35 -14 50
5 11 13 12 11 10 -9 -1 -16 4 -25 16 -26 9 -2 15 1 11 6 -3 5 -10 6 -16 3 -6
-4 -8 1 -4 14 7 22 -8 39 -19 21z"/>
<path d="M3204 2492 c3 -5 0 -13 -6 -15 -8 -3 -6 -6 5 -6 19 -1 23 14 5 25 -6
4 -8 3 -4 -4z"/>
<path d="M3230 2482 c0 -4 9 -13 20 -20 11 -7 20 -9 20 -4 0 4 -9 13 -20 20
-11 7 -20 9 -20 4z"/>
<path d="M3174 2432 l-17 -25 31 21 c35 26 42 27 42 8 0 -20 17 -29 26 -15 5
8 3 9 -6 4 -10 -6 -12 -4 -7 8 3 10 3 18 -1 18 -40 7 -53 4 -68 -19z"/>
<path d="M3245 2380 c-3 -6 1 -7 9 -4 18 7 21 14 7 14 -6 0 -13 -4 -16 -10z"/>
<path d="M3190 2329 c0 -5 -5 -7 -12 -3 -7 4 -8 3 -4 -5 6 -9 11 -9 22 0 17
14 18 19 4 19 -5 0 -10 -5 -10 -11z"/>
<path d="M3106 2245 c-11 -8 -15 -15 -9 -15 6 0 16 7 23 15 16 19 11 19 -14 0z"/>
<path d="M3050 2208 c-10 -21 -10 -21 3 -6 8 10 18 14 22 10 5 -4 5 -1 1 6
-10 17 -14 15 -26 -10z"/>
<path d="M2875 2140 c-3 -5 -1 -10 4 -10 6 0 11 5 11 10 0 6 -2 10 -4 10 -3 0
-8 -4 -11 -10z"/>
<path d="M2825 2130 c-3 -6 1 -7 9 -4 18 7 21 14 7 14 -6 0 -13 -4 -16 -10z"/>
<path d="M2991 2124 c0 -11 3 -14 6 -6 3 7 2 16 -1 19 -3 4 -6 -2 -5 -13z"/>
<path d="M2890 2082 c0 -5 7 -9 15 -9 8 0 12 4 9 9 -3 4 -9 8 -15 8 -5 0 -9
-4 -9 -8z"/>
<path d="M2815 2050 c3 -5 8 -10 11 -10 2 0 4 5 4 10 0 6 -5 10 -11 10 -5 0
-7 -4 -4 -10z"/>
<path d="M2870 2050 c-9 -6 -10 -10 -3 -10 6 0 15 5 18 10 8 12 4 12 -15 0z"/>
<path d="M2819 2027 c-6 -10 -4 -45 2 -41 4 2 6 11 2 19 -4 11 -1 13 11 9 9
-3 16 -4 16 -1 0 5 -29 18 -31 14z"/>
<path d="M2766 1964 c-15 -14 -14 -34 1 -34 4 0 3 3 0 7 -4 3 0 15 10 25 20
22 11 24 -11 2z"/>
<path d="M2634 1878 c-4 -5 -3 -12 0 -15 3 -4 6 -1 6 6 0 7 4 10 9 6 5 -3 12
-2 15 3 3 5 -2 9 -10 9 -8 0 -17 -4 -20 -9z"/>
<path d="M2452 1868 c-7 -7 -12 -19 -12 -27 0 -14 -2 -14 -11 -1 -9 13 -10 12
-5 -2 3 -10 -2 -25 -12 -34 -11 -11 -12 -16 -3 -13 7 3 24 24 37 47 25 44 26
50 6 30z"/>
<path d="M2440 1799 c-7 -11 -9 -23 -6 -27 3 -3 6 0 6 6 0 6 7 18 16 26 8 9
11 16 5 16 -6 0 -15 -9 -21 -21z"/>
<path d="M2480 1812 c0 -6 5 -14 10 -17 6 -4 7 -11 4 -17 -4 -7 -2 -8 5 -4 9
6 9 12 -1 24 -7 10 -14 19 -15 21 -2 2 -3 -1 -3 -7z"/>
<path d="M2317 1798 c-12 -9 -14 -17 -7 -28 11 -17 19 -11 25 19 5 25 4 25
-18 9z"/>
<path d="M2455 1780 c-3 -5 -1 -10 4 -10 6 0 11 5 11 10 0 6 -2 10 -4 10 -3 0
-8 -4 -11 -10z"/>
<path d="M2310 1740 c0 -5 5 -10 10 -10 6 0 10 5 10 10 0 6 -4 10 -10 10 -5 0
-10 -4 -10 -10z"/>
<path d="M2375 1740 c-3 -5 -1 -10 4 -10 6 0 11 5 11 10 0 6 -2 10 -4 10 -3 0
-8 -4 -11 -10z"/>
<path d="M2337 1715 c-4 -8 -3 -16 1 -19 4 -3 9 4 9 15 2 23 -3 25 -10 4z"/>
<path d="M2227 1687 c-3 -7 3 -13 14 -13 13 0 15 3 7 13 -6 7 -12 13 -13 13
-2 0 -5 -6 -8 -13z"/>
<path d="M2190 1660 c0 -5 5 -10 10 -10 6 0 10 5 10 10 0 6 -4 10 -10 10 -5 0
-10 -4 -10 -10z"/>
<path d="M2186 1623 c-6 -14 -5 -15 5 -6 7 7 10 15 7 18 -3 3 -9 -2 -12 -12z"/>
<path d="M2313 1395 c0 -8 4 -12 9 -9 5 3 6 10 3 15 -9 13 -12 11 -12 -6z"/>
<path d="M1580 1360 c-12 -7 -10 -9 7 -7 12 0 19 5 17 9 -6 10 -6 10 -24 -2z"/>
<path d="M1593 1285 c0 -8 4 -12 9 -9 5 3 6 10 3 15 -9 13 -12 11 -12 -6z"/>
<path d="M1561 1255 c0 -5 3 -16 8 -23 7 -11 9 -10 14 3 4 9 3 14 -2 10 -5 -3
-12 1 -14 7 -3 7 -6 9 -6 3z"/>
<path d="M1550 1225 c0 -5 5 -17 10 -25 5 -8 10 -10 10 -5 0 6 -5 17 -10 25
-5 8 -10 11 -10 5z"/>
<path d="M1530 1160 c0 -5 5 -10 10 -10 6 0 10 5 10 10 0 6 -4 10 -10 10 -5 0
-10 -4 -10 -10z"/>
<path d="M1585 1160 c-3 -6 1 -7 9 -4 18 7 21 14 7 14 -6 0 -13 -4 -16 -10z"/>
<path d="M1449 1143 c-13 -16 -12 -17 4 -4 9 7 17 15 17 17 0 8 -8 3 -21 -13z"/>
<path d="M1505 1149 c-4 -6 -5 -12 -2 -15 2 -3 7 2 10 11 7 17 1 20 -8 4z"/>
<path d="M1512 1124 c-11 -12 -9 -13 7 -11 11 2 24 7 28 12 5 4 3 5 -4 2 -6
-4 -13 -3 -15 2 -1 5 -9 3 -16 -5z"/>
<path d="M1490 1091 c0 -6 4 -13 10 -16 6 -3 7 1 4 9 -7 18 -14 21 -14 7z"/>
<path d="M2512 1066 c4 -5 3 -19 -3 -33 -5 -13 -5 -22 0 -19 15 9 20 46 8 53
-7 3 -9 3 -5 -1z"/>
<path d="M1469 983 c-13 -16 -12 -17 4 -4 16 13 21 21 13 21 -2 0 -10 -8 -17
-17z"/>
<path d="M1426 925 c-18 -14 -18 -14 1 -12 11 0 20 7 20 14 0 7 -1 13 -1 13
-1 0 -9 -7 -20 -15z"/>
<path d="M2575 900 c3 -5 8 -10 11 -10 2 0 4 5 4 10 0 6 -5 10 -11 10 -5 0 -7
-4 -4 -10z"/>
<path d="M1426 883 c-6 -14 -5 -15 5 -6 7 7 10 15 7 18 -3 3 -9 -2 -12 -12z"/>
<path d="M2607 859 c7 -7 15 -10 18 -7 3 3 -2 9 -12 12 -14 6 -15 5 -6 -5z"/>
<path d="M2610 806 c0 -8 4 -17 9 -20 5 -4 7 3 4 14 -6 23 -13 26 -13 6z"/>
<path d="M1400 800 c8 -5 20 -10 25 -10 6 0 3 5 -5 10 -8 5 -19 10 -25 10 -5
0 -3 -5 5 -10z"/>
<path d="M1370 760 c0 -5 5 -10 10 -10 6 0 10 5 10 10 0 6 -4 10 -10 10 -5 0
-10 -4 -10 -10z"/>
<path d="M2586 731 c-4 -5 -3 -17 1 -27 4 -12 3 -15 -5 -10 -8 5 -10 2 -6 -9
5 -11 2 -14 -10 -9 -9 3 -16 2 -17 -2 0 -5 -2 -21 -4 -37 -3 -19 2 -30 16 -38
11 -5 16 -15 13 -21 -4 -7 -2 -8 5 -4 8 5 9 12 2 19 -6 8 -4 16 4 24 11 10 15
10 18 0 4 -8 6 -8 6 -1 1 6 -6 17 -14 24 -8 7 -15 17 -15 22 0 6 7 5 15 -2 9
-8 15 -8 15 -2 0 6 -6 13 -12 16 -10 5 -10 7 0 12 7 3 17 15 23 26 8 15 8 19
0 14 -6 -4 -11 -2 -11 3 0 13 -17 14 -24 2z m24 -22 c0 -6 -4 -7 -10 -4 -5 3
-10 11 -10 16 0 6 5 7 10 4 6 -3 10 -11 10 -16z m-44 -48 c-3 -5 2 -12 11 -15
15 -6 15 -8 0 -23 -9 -9 -20 -13 -24 -9 -4 4 -1 11 6 15 9 6 10 11 2 15 -10 7
-6 26 5 26 3 0 3 -4 0 -9z"/>
<path d="M1340 706 c0 -2 7 -7 16 -10 8 -3 12 -2 9 4 -6 10 -25 14 -25 6z"/>
<path d="M2636 699 c3 -5 0 -9 -5 -9 -6 0 -11 -8 -11 -17 0 -14 3 -13 16 5 8
12 21 19 27 16 7 -4 8 -3 4 1 -10 12 -38 15 -31 4z"/>
<path d="M1335 660 c3 -5 8 -10 11 -10 2 0 4 5 4 10 0 6 -5 10 -11 10 -5 0 -7
-4 -4 -10z"/>
<path d="M1203 612 c-9 -15 -7 -18 8 -19 20 -2 23 5 11 24 -6 9 -11 8 -19 -5z"/>
<path d="M1282 596 c7 -8 15 -12 17 -11 5 6 -10 25 -20 25 -5 0 -4 -6 3 -14z"/>
<path d="M1315 601 c-3 -5 -2 -12 3 -15 5 -3 9 1 9 9 0 17 -3 19 -12 6z"/>
<path d="M1190 541 c0 -5 7 -15 17 -22 15 -13 15 -12 4 9 -12 23 -21 28 -21
13z"/>
<path d="M2515 529 c-4 -6 -5 -12 -2 -15 2 -3 7 2 10 11 7 17 1 20 -8 4z"/>
<path d="M1230 506 c0 -2 7 -7 16 -10 8 -3 12 -2 9 4 -6 10 -25 14 -25 6z"/>
<path d="M2400 480 c-12 -7 -12 -11 -2 -20 6 -5 10 -7 7 -4 -3 4 3 13 13 20
19 15 5 19 -18 4z"/>
<path d="M2439 473 c-13 -16 -12 -17 4 -4 16 13 21 21 13 21 -2 0 -10 -8 -17
-17z"/>
<path d="M1110 466 c0 -2 7 -7 16 -10 8 -3 12 -2 9 4 -6 10 -25 14 -25 6z"/>
<path d="M1095 440 c-4 -6 -1 -9 7 -8 7 2 12 -3 10 -10 -1 -8 2 -11 8 -7 8 5
7 11 -1 21 -14 17 -16 17 -24 4z"/>
<path d="M2420 440 c-9 -6 -10 -10 -3 -10 6 0 15 5 18 10 8 12 4 12 -15 0z"/>
<path d="M2375 420 c-3 -6 1 -7 9 -4 18 7 21 14 7 14 -6 0 -13 -4 -16 -10z"/>
<path d="M857 369 c-13 -21 -33 -27 -21 -6 4 6 -3 3 -15 -8 -12 -11 -18 -21
-12 -23 6 -2 9 -7 6 -12 -3 -4 2 -10 10 -14 8 -3 17 0 21 6 4 6 3 8 -3 5 -6
-4 -14 0 -17 9 -9 24 -7 28 7 15 11 -8 16 -5 25 14 6 14 17 25 23 25 7 0 5 -9
-5 -25 -9 -13 -16 -32 -15 -42 1 -18 1 -17 15 26 3 11 7 11 19 1 10 -9 15 -9
15 -1 0 6 -4 11 -10 11 -5 0 -10 5 -10 11 0 5 5 7 10 4 6 -3 10 -1 10 4 0 6 5
11 11 11 6 0 8 -8 4 -19 -3 -11 -1 -22 4 -26 7 -4 8 1 4 11 -5 13 -3 15 7 9
10 -6 10 -4 2 11 -14 26 -70 28 -85 3z"/>
<path d="M2264 379 c-4 -7 -3 -9 4 -5 6 3 13 -2 15 -11 4 -16 5 -16 6 -1 1 21
-15 32 -25 17z"/>
<path d="M2311 364 c0 -11 3 -14 6 -6 3 7 2 16 -1 19 -3 4 -6 -2 -5 -13z"/>
<path d="M754 326 c1 -8 5 -18 8 -22 4 -3 5 1 4 10 -1 8 -5 18 -8 22 -4 3 -5
-1 -4 -10z"/>
<path d="M890 310 c6 -11 13 -20 16 -20 2 0 0 9 -6 20 -6 11 -13 20 -16 20 -2
0 0 -9 6 -20z"/>
<path d="M786 303 c-6 -14 -5 -15 5 -6 7 7 10 15 7 18 -3 3 -9 -2 -12 -12z"/>
</g>
</svg>
